<mxfile host="app.diagrams.net" modified="2023-10-28T05:45:28.920Z" agent="Mozilla/5.0 (Windows NT 10.0; Win64; x64) AppleWebKit/537.36 (KHTML, like Gecko) Chrome/118.0.0.0 Safari/537.36" version="22.0.8" etag="1CRkDeHnDh-WDJBqOw5K" type="github">
  <diagram name="Page-1" id="9RxeTIwy5-CdGm47MDg-">
    <mxGraphModel>
      <root>
        <mxCell id="0" />
        <mxCell id="1" parent="0" />
      </root>
    </mxGraphModel>
  </diagram>
</mxfile>
